PathFileType	4	(X/Y/Z)	OpenSim_Sub05_EMGBaseline_Accel.trc
DataRate	CameraRate	NumFrames	NumMarkers	Units	OrigDataRate	OrigDataStartFrame	OrigNumFrames
100	100	28	8	m	100	1	11909
Frame#	Time	torso_imu_offset_imu	pelvis_imu_offset_imu	tibia_r_imu_offset_imu	femur_r_imu_offset_imu	tibia_l_imu_offset_imu	femur_l_imu_offset_imu	toes_r_imu_offset_imu	toes_l_imu_offset_imu
				X1	Y1	Z1	X2	Y2	Z2	X3	Y3	Z3	X4	Y4	Z4	X5	Y5	Z5	X6	Y6	Z6	X7	Y7	Z7	X8		Y8	Z8	

1	0	9.82657700	1.08055400	-1.66293900	8.37564700	-2.94966800	4.80891200	8.04184300	2.93108000	-0.00736200	8.57818900	-4.60450500	3.65736000	9.73523700	-0.21710700	-1.22903700	9.68775900	-0.05172800	-0.69906000	5.80080900	-1.32574300	8.14256200	4.93364200	2.29666000	11.01078300
2	0.01000000	10.23540600	1.04171000	-1.56351800	8.37272200	-3.04569700	4.98654700	9.33856100	-0.18581100	1.51999900	8.12507600	-3.39700400	2.26828700	9.79999300	0.63787500	-1.04020200	9.68577300	-0.18128100	-0.74443900	5.63481800	-0.91490500	8.36195800	4.97786600	2.18565700	11.02456100
3	0.02000000	10.46267900	1.02707600	-1.42669600	8.63983000	-2.79469000	5.05372600	10.88400700	-2.59551800	2.66229300	8.26649100	-2.30613100	1.31852100	10.20778500	1.12927100	-0.84322800	9.80389600	-0.06785900	-0.58734900	5.72466600	-0.83772100	8.36080100	4.79108600	2.36914400	11.06579200
4	0.03000000	10.36545700	1.08514000	-1.44279600	8.95100400	-2.34287600	5.03664700	11.11546100	-3.92272700	2.84426200	8.76122100	-1.72568600	1.01623500	10.22641500	1.17676300	-0.39326900	9.89944600	0.20729000	-0.28873300	5.96869600	-1.01599200	8.18063700	4.78316100	2.27092100	10.94828200
5	0.04000000	10.11420500	1.09359600	-1.52723900	9.06824300	-1.71495100	5.17846900	10.69577000	-4.77189100	3.02844800	9.36346400	-1.73175200	1.36529500	9.77010600	0.83688700	-0.13852700	9.91922900	0.55947600	-0.06921600	5.84944600	-1.02637000	8.12136300	4.86379700	2.04190900	10.93528900
6	0.05000000	9.97852100	1.06398800	-1.51195100	9.08441300	-1.29841700	5.26778400	10.28550500	-4.18618100	3.08978000	9.89851800	-2.48129900	2.06501500	9.53817400	0.49083100	0.01135800	9.86780500	0.96784800	0.14795600	5.69081000	-0.96776000	8.16350900	4.87832300	1.85924400	10.92738600
7	0.06000000	9.84240500	0.92815500	-1.65162100	8.95966200	-1.04934100	5.18709200	9.92899900	-1.92540600	2.64894500	10.04959100	-3.57141600	2.65983400	9.69938700	0.37578400	0.07029500	9.92708000	1.27345200	0.28786800	5.60230700	-0.87244100	8.24155600	4.77107000	1.88224500	10.98705900
8	0.07000000	9.74680400	0.71486300	-1.88295000	8.71002600	-1.03255300	5.06594400	9.66087100	0.63940300	1.82507500	10.09534900	-4.38477700	3.11125300	9.94855200	0.68950800	0.02624600	9.91399800	1.44708600	0.26853100	5.68192800	-1.07073900	8.20713700	4.85526100	1.97716500	10.99404600
9	0.08000000	9.87851100	0.54983900	-2.00342100	8.68056900	-1.16628200	5.02934500	9.44825200	2.49128400	1.46096500	10.13416400	-4.51752200	3.48946200	9.94230000	1.10460800	-0.28609000	9.91740600	1.39466200	0.32528600	5.77875800	-1.43315300	8.06589000	5.01186600	2.12592300	10.98144700
10	0.09000000	10.17102800	0.44485600	-1.96384700	8.74733900	-1.24136900	4.99553800	9.16637000	3.28334800	1.33798900	10.29005500	-3.70493500	3.78531300	9.94830800	1.19624500	-0.71766700	9.85134500	1.44234000	0.18682800	5.81041800	-1.56485800	8.01198500	4.90137300	2.14362900	10.96753900
11	0.10000000	10.36050000	0.41176200	-1.99171100	8.84603100	-1.12803300	5.08133300	9.24868200	3.03784200	1.01810600	10.13562800	-2.09706100	4.05283600	9.96941400	0.91620900	-0.99747800	9.69791200	1.47854600	-0.21068600	5.79438800	-1.49153800	8.08954000	4.80951800	2.38014500	10.93797500
12	0.11000000	10.48133700	0.45864000	-1.95626100	8.84406500	-0.89197300	5.23663400	9.62898800	1.89727500	0.82927900	9.68512300	-0.19870800	4.02446200	9.81117000	0.60511200	-0.93121100	9.66290700	1.38566000	-0.61223100	5.69701600	-1.38933000	8.20354300	4.88578500	2.44827700	10.98974300
13	0.12000000	10.42374400	0.54620600	-1.83396100	8.85682500	-0.63764500	5.40239600	9.98756000	0.53875400	0.98900200	9.31081700	1.42259200	3.94925900	9.83659600	0.73917500	-0.94911800	9.70357600	1.33587200	-0.69817200	5.71422500	-1.20460300	8.21260000	5.03150500	2.32688200	10.97471000
14	0.13000000	10.12706400	0.59479900	-1.73527100	8.75721700	-0.42188100	5.56040100	10.17020500	-0.31181300	1.41601300	9.18260500	2.54945100	3.88540100	9.86320200	1.18076500	-0.76294800	9.71947700	1.38124000	-0.56037100	5.72638900	-1.10193900	8.25494100	4.97149100	2.35727800	11.00587500
15	0.14000000	9.70964200	0.58193400	-1.78744200	8.59203200	-0.35838800	5.59375400	10.16300400	-0.55537500	1.76091000	9.27696200	2.95025700	4.07261500	9.95351800	1.45752400	-0.39578000	9.95371800	1.53901500	-0.26003400	5.70261000	-1.06910000	8.21580600	4.93477500	2.35382200	10.94212400
16	0.15000000	9.34837700	0.55416100	-1.84891200	8.30178100	-0.28843600	5.56884600	10.06379500	-0.44946500	2.04080200	9.54356400	2.67140100	4.43281200	9.84866900	1.33382300	-0.09906900	9.94503800	1.66104900	-0.00561600	5.64691500	-0.83512800	8.21780000	4.92199300	2.19742600	10.95700100
17	0.16000000	9.21267700	0.48240200	-1.93545900	8.04623900	-0.27052500	5.46172900	9.98681600	-0.17984000	2.02749300	9.84280400	1.97044800	4.75974000	9.71771200	1.16873600	0.11061900	9.83549700	1.80912300	0.15286600	5.61460100	-0.83375500	8.39441500	4.86477800	2.12462400	10.91288500
18	0.17000000	9.23890600	0.48922700	-2.08688500	7.91967800	-0.30965900	5.31555600	9.80953100	0.09358100	1.87454100	10.07845500	0.94765800	4.85743700	9.67701200	1.06575500	0.24523200	9.83294800	1.79602800	0.35171700	5.53914900	-1.09481600	8.24136100	4.91745300	2.04056600	10.88176000
19	0.18000000	9.35333100	0.53039100	-2.18119900	7.98582400	-0.31394200	5.29293700	9.71324900	0.23361700	1.63666700	10.03561600	0.04354000	4.70561400	9.67160900	1.04439300	0.31824000	9.74219400	1.74514700	0.49453700	5.74535300	-1.32797800	8.18170700	4.91475600	2.00314800	10.89641200
20	0.19000000	9.51423900	0.60435600	-2.21613400	8.16787800	-0.32976500	5.34855500	9.80538200	0.34511900	1.30512800	9.95723700	-0.74628700	4.47139400	9.68445400	1.06205100	0.07070900	9.62849900	1.67078800	0.52327800	5.67945700	-1.29151700	8.11129700	4.85713100	2.05261700	10.94259500
21	0.20000000	9.59231200	0.63421100	-2.08479500	8.40638500	-0.32598900	5.40729600	9.83412600	0.48264800	1.06015900	9.91966900	-1.23103600	4.12301500	9.77627600	1.24243800	-0.18102000	9.72898100	1.53580700	0.49025900	5.58279800	-1.32133300	8.22859700	4.81177900	2.30126100	10.95934400
22	0.21000000	9.59062800	0.61961600	-2.07718800	8.60316500	-0.32579600	5.47399400	9.76572800	0.62618000	1.19299100	9.98918500	-1.34795300	3.81236400	9.84435600	1.45903100	-0.28077400	9.86569100	1.38511400	0.41322000	5.80525500	-1.40408100	8.21309500	5.01355300	2.34408400	11.03530900
23	0.22000000	9.52646400	0.51605900	-2.01546900	8.81736400	-0.47256300	5.57081400	9.74179400	0.57142500	1.18254100	10.04230100	-1.25752000	3.43644300	9.86212700	1.47314600	-0.46788000	9.86735000	1.20057700	0.16205300	5.71269900	-1.25839400	8.15184500	5.02027600	2.11483000	10.97116700
24	0.23000000	9.47137100	0.48552700	-1.98826700	8.86299600	-0.58417300	5.62493400	9.85069900	0.31669300	1.23933800	9.98588600	-1.16446500	3.18622000	9.92847700	1.10482400	-0.58047300	9.78565300	1.12757900	-0.13576900	5.62478200	-1.07111500	8.20850500	4.85887100	2.28531900	10.93101600
25	0.24000000	9.37726500	0.47010100	-1.92360700	8.80307200	-0.66342900	5.66438200	9.91913900	0.02516900	1.50777200	9.83075400	-1.07111800	2.98680700	9.91233000	0.79126700	-0.58605300	9.79761400	1.09531400	-0.19267500	5.72884300	-1.26387800	8.16053800	4.88578500	2.43666000	10.92569900
26	0.25000000	9.19280900	0.48868000	-1.90584900	8.65815200	-0.70007800	5.64507300	10.01178600	-0.03097800	1.87870500	9.66432700	-1.02572000	2.80879000	9.81540500	0.86291400	-0.50354100	9.99233100	1.07129300	-0.07159500	5.56729500	-0.93821400	8.21095400	4.85499400	2.31194000	10.94716700
27	0.26000000	9.10769600	0.54455700	-1.87405200	8.44122000	-0.73897500	5.61757500	10.00298000	0.09959700	1.86575400	9.54871600	-1.14599800	2.69611500	9.79966400	1.11081400	-0.21632900	9.94960100	1.10907100	0.00392500	5.51507100	-1.15485400	8.21161700	4.69490300	2.28831400	10.91866300
28	0.27000000	9.08972200	0.55306100	-1.89965400	8.33928900	-0.77246700	5.58852000	9.96383200	-0.03924400	1.74960300	9.45009400	-1.40793700	2.67471300	9.77362000	1.21616100	-0.02978400	9.88998100	1.06049800	0.02790300	5.51457000	-1.35912700	8.19951200	4.66184300	2.38085500	10.97401500
